<svg xmlns="http://www.w3.org/2000/svg" enable-background="new 0 0 64 64" viewBox="0 0 64 64" id="e-commerce"><path fill="#2b2f64" d="M61.94,7.53H2.06C0.93,7.53,0,8.46,0,9.59v35.18c0,1.14,0.93,2.06,2.06,2.06h26.47v6.83h-9.1
		c-0.77,0-1.4,0.63-1.4,1.4s0.63,1.4,1.4,1.4h25.16c0.77,0,1.4-0.63,1.4-1.4s-0.63-1.4-1.4-1.4h-9.1v-6.83h26.46
		c1.15,0,2.06-0.93,2.06-2.06V9.59C64,8.46,63.08,7.53,61.94,7.53z M61.42,43.22c0,0.57-0.45,1.03-1.03,1.03H3.61
		c-0.57,0-1.03-0.46-1.03-1.03V11.14c0-0.57,0.46-1.03,1.03-1.03h56.77c0.58,0,1.03,0.46,1.03,1.03V43.22z"></path><path fill="#2b2f64" d="M4.65,42.19h54.71V12.17H4.65V42.19z M30.9,38.84c-1.42,0-2.57-1.15-2.57-2.57c0-1.41,1.15-2.56,2.57-2.56
		c1.41,0,2.56,1.15,2.56,2.56C33.46,37.69,32.31,38.84,30.9,38.84z M38.04,38.84c-1.41,0-2.56-1.15-2.56-2.57
		c0-1.41,1.15-2.56,2.56-2.56c1.41,0,2.57,1.15,2.57,2.56C40.61,37.69,39.45,38.84,38.04,38.84z M20.95,15.54l2.54-0.01
		c0.81-0.02,1.52,0.51,1.77,1.27l0.73,2.29h16.25c0.6,0,1.16,0.3,1.5,0.78c0.35,0.49,0.43,1.11,0.23,1.68l-2.29,6.48
		c-0.27,0.73-0.97,1.23-1.74,1.23H29.26l0.39,1.23h10.52c0.57,0,1.03,0.46,1.03,1.03c0,0.58-0.46,1.03-1.03,1.03H29.49
		c-0.79,0-1.5-0.51-1.74-1.27l-4.4-13.7l-2.38,0.01c-0.55,0.03-1.03-0.46-1.03-1.03C19.92,16,20.39,15.54,20.95,15.54z"></path><polygon fill="#2b2f64" points="39.77 27.2 41.92 21.15 26.65 21.15 28.6 27.2"></polygon><path fill="#2b2f64" d="M30.9 35.26c-.56 0-1.02.45-1.02 1 0 .56.46 1.02 1.02 1.02.55 0 1.01-.46 1.01-1.02C31.9 35.72 31.44 35.26 30.9 35.26zM38.04 35.26c-.54 0-1 .46-1 1 0 .56.45 1.02 1 1.02.56 0 1.02-.46 1.02-1.02C39.05 35.71 38.6 35.26 38.04 35.26z"></path></svg>